# xmcd
# Copyright (C) 1995-1998 Ti Kan
#
# Track frame offsets:
#       150
#       21042
#       35945
#       50186
#       64065
#       78841
#       93994
#       114100
#       128938
#       145366
#       165223
#       177634
#       206610
#
# Disc length: 3030 seconds
#
# Revision: 0
# Processed by: cddbd v1.5.2PL0 Copyright (c) Steve Scherf et al.
# Submitted via: CD-Import v1.0
#
DISCID=b30bd40d
DTITLE=Daniel Darc - Crève Coeur
DYEAR=2004
DGENRE=
TTITLE0=La Pluie Qui Tombe
TTITLE1=La Main Au Coeur
TTITLE2=Rouge Rose
TTITLE3=Élegie #2
TTITLE4=Inutile Et Hors D'usage
TTITLE5=Je Me Souviens, Je Me Rappelle
TTITLE6=Un Peu C'est Tout
TTITLE7=Mes Amis (Tour À Tour)
TTITLE8=Si Tu Vas Là-Bas
TTITLE9=Et Quel Crime?
TTITLE10=Jamais, Jamais
TTITLE11=Psaume 23
TTITLE12=
EXTD=
EXTT0=
EXTT1=
EXTT2=
EXTT3=
EXTT4=
EXTT5=
EXTT6=
EXTT7=
EXTT8=
EXTT9=
EXTT10=
EXTT11=
EXTT12=
PLAYORDER=
